<svg width="46" height="52" viewBox="0 0 46 52" fill="none" xmlns="http://www.w3.org/2000/svg" xmlns:xlink="http://www.w3.org/1999/xlink">
<path d="M13.571,38.821L22,30.25L30.5,38.821L33.829,35.421L25.4,26.85L33.829,18.279L30.5,14.879L22,23.45L13.571,14.879L10.171,18.279L18.671,26.85L10.171,35.421L13.571,38.821ZM6.488,51.5C5.354,51.5 4.363,51.075 3.513,50.225C2.663,49.375 2.238,48.383 2.238,47.25L2.238,6.875L-0.667,6.875L-0.667,2.625L12.65,2.625L12.65,0.5L31.35,0.5L31.35,2.625L44.667,2.625L44.667,6.875L41.763,6.875L41.763,47.25C41.763,48.383 41.338,49.375 40.488,50.225C39.638,51.075 38.646,51.5 37.513,51.5L6.488,51.5Z" fill="#990000" fill-opacity="0.8"/>
</svg>
