<svg width="40" height="44" viewBox="0 0 40 44" fill="none" xmlns="http://www.w3.org/2000/svg" xmlns:xlink="http://www.w3.org/1999/xlink">
<path d="M0,44L0,37.912L40,37.912L40,44L0,44ZM4.1,32.579L4.1,25.887L22.75,7.12L29.4,13.812L10.75,32.579L4.1,32.579ZM7.1,29.56L9.35,29.56L25.1,13.711L22.85,11.447L7.1,27.296L7.1,29.56ZM31.6,11.598L24.95,4.906L29.15,0.68C29.517,0.244 29.933,0.018 30.4,0.001C30.867,-0.016 31.333,0.211 31.8,0.68L35.7,4.605C36.133,5.041 36.35,5.502 36.35,5.988C36.35,6.475 36.167,6.936 35.8,7.372L31.6,11.598Z" fill="#6750A4"/>
</svg>
